<?xml version="1.0" encoding="UTF-8"?>
<svg id="_Слой_2" data-name="Слой 2" xmlns="http://www.w3.org/2000/svg" viewBox="0 0 190.23 191.08">
  <defs>
    <style>
      .cls-1 {
        fill: #1d1d1b;
      }
    </style>
  </defs>
  <g id="Layer_1" data-name="Layer 1">
    <g>
      <g>
        <path class="cls-1" d="m80.8,101.16l5.35-8.86v-40.3h22.59c2.32,0,4.15.8,5.48,2.41,1.34,1.6,2.34,3.44,3.02,5.49.34,1.07.62,2.11.83,3.12h1.24v-13.02H47.65v13.02h1.25c.2-1.01.47-2.05.83-3.12.66-2.05,1.67-3.88,3.01-5.49s3.16-2.41,5.48-2.41h22.59v49.16Z"/>
        <path class="cls-1" d="m143.18,117.53c-.55.34-1.18.89-1.9,1.67-.73.79-1.52,1.68-2.39,2.73-.85,1.03-1.73,2.05-2.62,3.04-.92.98-1.8,1.85-2.67,2.57-.88.73-1.74,1.16-2.59,1.3-.98.18-1.57-.22-1.8-1.15-.24-.93-.23-2.23.06-3.9.28-1.68.74-3.62,1.41-5.82.66-2.22,1.39-4.53,2.18-6.94.78-2.41,1.58-4.83,2.39-7.25.82-2.42,1.52-4.66,2.09-6.71.59-2.08,1.01-3.88,1.21-5.44.22-1.55.13-2.67-.27-3.34-.2-.38-.73-.78-1.54-1.15-.81-.39-1.64-.52-2.5-.37-.68.1-1.38.38-2.15.84-.78.43-1.71,1.04-2.81,1.81-1.94,1.38-3.85,3.01-5.71,4.9-1.88,1.89-3.73,3.91-5.5,6.09-1.8,2.15-3.53,4.37-5.23,6.66-1.68,2.28-3.27,4.5-4.75,6.69-3.46,5.09-6.72,10.46-9.78,16.05-.2-.38-.11-1.44.31-3.16.41-1.72,1.02-3.88,1.82-6.51.8-2.64,1.72-5.55,2.75-8.81,1.03-3.23,2.11-6.56,3.25-9.93,1.13-3.39,2.2-6.74,3.21-10.02,1.02-3.29,1.9-6.29,2.64-9.02.75-2.71,1.27-5.03,1.6-6.9.31-1.9.32-3.12-.01-3.71-.45-.76-.99-1.17-1.67-1.24-.66-.09-1.36.03-2.1.31-.74.28-1.49.69-2.27,1.25-.78.56-1.46,1.08-2.02,1.6-3.71,3.2-7.17,6.85-10.42,10.99-3.25,4.16-6.37,8.52-9.37,13.11-1.94,2.99-15.52,22.55-17.57,27.66,0,.02,0,.02,0,.03,0,.02-.02.03-.02.05-.43,1.01-.82,2.05-1.08,3.15-.28,1.11-.46,2.18-.5,3.23-.05,1.06.03,2.09.23,3.08.1.5.24.99.41,1.49.19.55.43,1.1.71,1.64.41.76.92,1.52,1.53,2.24,2.1,2.52,5.15,3.3,8.11,1.9,4.13-1.94,6.75-5.15,7.78-9.6.62-2.7.64-5.43.52-8.15v-18.09l-5.35,9.17v9.02c-.15,2.09-.23,4.16-.33,6.25-.1,2.27-.42,4.52-.74,6.78-.07.49-.22.97-.43,1.42-.11.22-.21.46-.33.69-.34.61-.77,1.18-1.32,1.66-1.16,1.01-2.98.82-4.01-.33-1.13-1.25-1.48-2.82-1.61-4.45-.27-3.08.34-6.06,1.22-8.98.59-1.92,1.25-3.82,2.03-5.64,0-.01.01-.01.01-.03,0,0,.03-.08.09-.2.01-.04.04-.09.06-.15,0,0,0-.01,0-.02,1.13-2.83,2.45-5.6,3.95-8.26,1.21-2.13,2.39-4.16,3.56-6.07,5.15-8.41,9.68-15.14,13.6-20.19,3.94-5.04,7.13-8.58,9.56-10.66,2.45-2.06,3.85-3.02,4.19-2.87.09.03.04.5-.15,1.4-.18.88-.48,2-.88,3.32-.42,1.34-.87,2.79-1.36,4.36-.5,1.58-.98,3.07-1.45,4.44-.46,1.4-.85,2.6-1.2,3.59-.33,1.01-.53,1.59-.65,1.77-1.86,5.23-3.43,9.87-4.74,13.88-1.29,4.02-2.36,7.54-3.2,10.57-.83,3.02-1.45,5.62-1.88,7.78-.42,2.18-.64,4.02-.64,5.53-.03,1.01-.03,1.94.03,2.76.04.83.1,1.31.19,1.45.18.33.73.67,1.62,1.04.9.36,1.5.46,1.82.29.09-.06.48-.66,1.15-1.82.69-1.15,1.43-2.52,2.24-4.14,2.29-4.46,4.69-8.62,7.21-12.48,2.52-3.87,4.98-7.37,7.4-10.55,2.42-3.16,4.75-5.95,7-8.34,2.25-2.39,4.25-4.36,6-5.88,1.76-1.53,3.18-2.59,4.32-3.17,1.12-.59,1.82-.66,2.06-.23.05.09.03.37-.08.84-.09.46-.27,1.06-.51,1.82-.24.74-.52,1.59-.81,2.56-.33.97-.66,2-1.06,3.06-1.9,5.31-3.52,9.86-4.84,13.7-1.34,3.85-2.25,7.07-2.76,9.68-.51,2.6-.55,4.69-.08,6.25.46,1.58,1.53,2.73,3.21,3.46,1.01.48,2.05.64,3.15.45.85-.13,1.76-.55,2.74-1.22.97-.66,1.95-1.48,2.94-2.42.99-.94,1.95-1.95,2.87-3.02.92-1.07,1.71-2.09,2.34-3.04.66-.94,1.18-1.74,1.59-2.38.39-.65.56-1.02.51-1.11-.27-.47-.69-.56-1.22-.24Z"/>
      </g>
      <path class="cls-1" d="m185.94,100.62c-.88,22.31-9.81,44.37-26.81,61.37-17.37,17.37-40.47,26.94-65.04,26.94s-47.67-9.57-65.04-26.94C-6.81,126.12-6.81,67.77,29.05,31.9c11.8-11.8,26.04-19.69,41.1-23.73l-.33-2.14c-15.5,4.11-30.16,12.21-42.3,24.34-36.7,36.7-36.7,96.43,0,133.13,17.78,17.78,41.42,27.57,66.57,27.57s48.79-9.79,66.57-27.57c17.48-17.48,26.61-40.17,27.45-63.11-.73.07-1.45.14-2.16.22Z"/>
      <g>
        <g>
          <path class="cls-1" d="m86.13.51c.58-.05,1.13.01,1.63.18.5.17.94.42,1.33.76.35.31.63.69.84,1.12.21.43.34.91.38,1.45.05.56-.01,1.08-.17,1.58-.16.49-.41.92-.74,1.3-.31.35-.69.63-1.15.85-.45.22-.95.35-1.5.4l-3.18.26-.62-7.63,3.18-.26Zm-1.75,1.37l.42,5.19,1.79-.14c.4-.03.75-.12,1.05-.28.3-.15.55-.35.76-.59.43-.52.61-1.17.55-1.94-.06-.76-.34-1.37-.84-1.81-.24-.2-.52-.36-.84-.46-.32-.11-.69-.14-1.09-.11l-1.79.14Z"/>
          <path class="cls-1" d="m83.44,8.56l-.64-7.92,3.33-.27c.6-.05,1.17.01,1.69.19.52.17.98.44,1.38.79.36.32.66.71.88,1.16.22.45.35.95.39,1.5.05.57-.01,1.12-.18,1.63-.17.51-.42.96-.76,1.35-.32.36-.72.66-1.19.89-.46.23-.99.37-1.56.41l-3.33.27Zm-.32-7.65l.59,7.34,3.03-.25c.53-.04,1.02-.17,1.45-.38.43-.21.8-.49,1.1-.82.31-.36.55-.78.71-1.25.15-.47.21-.98.17-1.52-.04-.51-.16-.98-.36-1.4-.2-.41-.47-.77-.81-1.07-.37-.32-.8-.57-1.28-.73-.48-.16-1-.22-1.57-.17l-3.03.24Zm1.56,6.33l-.44-5.48,1.94-.16c.42-.03.81,0,1.15.12.34.11.64.28.89.49.52.46.82,1.11.89,1.91.07.81-.13,1.5-.58,2.05-.22.26-.49.47-.81.63-.32.16-.69.26-1.1.29l-1.93.16Zm-.13-5.21l.4,4.9,1.64-.13c.38-.03.71-.12,1-.26.28-.14.52-.33.71-.55.4-.49.57-1.11.51-1.84-.06-.72-.32-1.3-.79-1.71-.22-.19-.48-.33-.79-.43-.3-.1-.65-.13-1.04-.1l-1.64.13Z"/>
        </g>
        <g>
          <path class="cls-1" d="m96.29.15l5.92.32-.07,1.25-4.56-.24-.1,1.78,4.08.22-.07,1.22-4.08-.22-.12,2.17,4.74.25-.06,1.22-6.1-.33.41-7.64Z"/>
          <path class="cls-1" d="m102.12,8.28l-6.4-.34.42-7.94,6.22.33-.08,1.54-4.56-.24-.08,1.49,4.08.22-.08,1.52-4.08-.22-.1,1.87,4.74.25-.08,1.52Zm-6.09-.62l5.81.31.05-.93-4.74-.25.13-2.46,4.08.22.05-.93-4.08-.22.11-2.08,4.56.24.05-.95-5.63-.3-.39,7.35Z"/>
        </g>
        <g>
          <path class="cls-1" d="m115.75,2.57l-1.44,7.52-1.24-.24-3.39-6.25-1.04,5.4-1.32-.25,1.44-7.52,1.24.24,3.41,6.27,1.04-5.41,1.29.25Z"/>
          <path class="cls-1" d="m114.42,10.26l-1.45-.28-3.22-5.95-.99,5.14-1.6-.31.03-.14,1.47-7.66,1.45.28,3.25,5.97.99-5.15,1.58.3-.03.14-1.47,7.66Zm-1.26-.54l1.03.2,1.39-7.23-1-.19-1.09,5.67-3.57-6.57-1.03-.2-1.39,7.23,1.03.2,1.09-5.66,3.55,6.55Z"/>
        </g>
        <g>
          <path class="cls-1" d="m121.74,4.16l6.66,2.26-.39,1.16-2.7-.91-2.07,6.09-1.27-.43,2.07-6.09-2.69-.91.39-1.16Z"/>
          <path class="cls-1" d="m123.34,12.94l-1.55-.53,2.07-6.09-2.69-.91.49-1.44,6.94,2.35-.49,1.44-2.7-.91-2.07,6.09Zm-1.17-.71l.99.34,2.07-6.09,2.7.91.3-.88-6.38-2.16-.3.88,2.69.91-2.07,6.09Z"/>
        </g>
        <g>
          <path class="cls-1" d="m137.14,10.3l-.3,8.37-1.32-.64.04-1.54-3.67-1.79-1.18.99-1.3-.63,6.4-5.4,1.32.64Zm-4.24,3.53l2.74,1.33.27-3.91-.14-.07-2.88,2.65Z"/>
          <path class="cls-1" d="m136.98,18.9l-1.61-.78.04-1.54-3.5-1.7-1.18.99-1.58-.77,6.65-5.61,1.49.73v.1s-.31,8.59-.31,8.59Zm-1.31-.96l1.03.5.29-8.05-1.15-.56-6.16,5.19,1.01.49,1.18-.99,3.84,1.87-.04,1.54Zm.1-2.55l-3.13-1.52,3.11-2.86.32.15-.29,4.23Zm-2.62-1.6l2.35,1.14.24-3.53-2.6,2.39Z"/>
        </g>
        <g>
          <path class="cls-1" d="m146.24,24.62l-4.96-3.31,4.25-6.37,1.14.76-3.57,5.35,3.82,2.55-.68,1.02Z"/>
          <path class="cls-1" d="m146.28,24.82l-5.2-3.47.08-.12,4.33-6.49,1.38.92-.08.12-3.49,5.23,3.82,2.55-.84,1.26Zm-4.79-3.55l4.71,3.14.52-.77-3.82-2.55.08-.12,3.49-5.23-.89-.59-4.08,6.12Z"/>
        </g>
        <g>
          <path class="cls-1" d="m160.34,29.19c.26-.25.53-.41.82-.48.29-.07.58-.08.86-.03.36.06.72.2,1.08.43.36.23.71.52,1.04.87.33.35.63.74.9,1.18.26.44.49.96.67,1.57l-1.13.38c-.15-.46-.32-.87-.54-1.24-.21-.36-.46-.69-.74-.99-.22-.23-.44-.43-.67-.61-.23-.18-.46-.29-.68-.33-.28-.05-.51.01-.71.2-.08.08-.13.16-.15.25-.02.09-.02.19,0,.29.01.14.06.28.14.41.08.14.15.26.23.38l.87,1.32c.21.32.4.67.56,1.03s.23.72.23,1.08c0,.24-.06.47-.16.7-.1.22-.26.44-.49.66-.3.28-.61.46-.93.55-.32.08-.64.09-.95.02-.41-.08-.82-.27-1.22-.55-.41-.28-.79-.61-1.14-.98-.22-.23-.42-.46-.58-.66-.17-.21-.31-.42-.44-.64-.13-.22-.25-.44-.34-.68-.1-.23-.2-.49-.29-.76l1.1-.47c.38.94.86,1.71,1.44,2.33.32.33.6.59.87.78.26.19.53.3.81.35.26.04.49-.05.7-.25.1-.1.17-.2.21-.31.04-.11.05-.23.04-.35-.03-.16-.08-.34-.17-.52-.09-.19-.19-.37-.32-.56l-.96-1.43c-.2-.29-.35-.58-.46-.87-.11-.29-.17-.57-.16-.84.01-.21.06-.42.16-.62.1-.2.25-.41.47-.62Z"/>
          <path class="cls-1" d="m161.05,37.03c-.16,0-.31-.02-.46-.05-.43-.09-.86-.28-1.27-.57-.41-.29-.8-.62-1.16-1-.23-.25-.43-.47-.59-.68-.16-.2-.31-.42-.45-.65-.13-.23-.25-.46-.35-.69-.1-.25-.2-.5-.3-.77l-.04-.13,1.37-.58.06.14c.37.91.84,1.68,1.41,2.28.32.33.59.58.84.76.24.18.49.28.75.33.2.03.4-.04.57-.21.09-.08.14-.17.17-.25.03-.09.04-.19.03-.29-.02-.14-.08-.3-.16-.47-.08-.18-.19-.36-.31-.54l-.96-1.42c-.2-.3-.36-.6-.48-.89-.12-.3-.18-.6-.17-.9.01-.23.07-.46.18-.68.11-.22.28-.44.5-.66h0c.28-.26.57-.44.88-.52.31-.08.62-.09.93-.03.37.06.75.21,1.13.45.37.24.73.54,1.07.9.34.35.65.76.92,1.2.27.45.5.99.69,1.6l.04.14-1.41.47-.04-.14c-.14-.45-.32-.85-.52-1.21s-.45-.67-.72-.96c-.21-.22-.43-.42-.65-.59-.21-.16-.42-.26-.62-.3-.23-.04-.42,0-.58.16-.06.06-.09.11-.1.16-.01.07-.01.15,0,.24.01.13.05.25.12.37.08.14.15.26.22.37l.87,1.32c.22.33.41.68.57,1.05.17.38.25.76.24,1.14,0,.26-.06.51-.17.75-.11.24-.28.48-.52.71-.31.3-.65.49-.99.58-.19.05-.37.07-.56.07Zm-4.27-4.38c.08.21.16.42.24.62.1.22.21.44.34.66.13.22.28.43.43.62.16.2.34.42.57.65.34.36.72.68,1.12.96.38.27.78.45,1.17.53.29.06.59.06.89-.02.3-.08.59-.25.86-.51.21-.2.37-.41.46-.61s.14-.42.14-.64c0-.33-.07-.67-.22-1.01-.15-.35-.33-.69-.54-1.01l-.87-1.32c-.08-.12-.15-.25-.23-.39-.09-.16-.14-.31-.16-.47-.02-.11-.03-.23,0-.34.02-.11.08-.22.19-.32.23-.22.51-.3.84-.24.25.04.5.16.74.35.23.18.46.39.68.62.29.3.54.64.76,1.02.19.33.36.71.5,1.12l.86-.28c-.17-.53-.38-1-.62-1.4-.26-.43-.56-.81-.88-1.15-.33-.34-.67-.63-1.02-.85-.34-.22-.69-.36-1.03-.41-.27-.05-.54-.04-.8.03-.26.07-.51.22-.75.45h0c-.2.19-.35.38-.44.57-.09.19-.14.37-.15.57,0,.25.04.52.15.78.11.27.26.56.45.84l.96,1.43c.13.2.24.39.33.58.09.2.16.38.18.56.01.15,0,.29-.05.42-.04.13-.13.26-.25.38-.24.23-.52.33-.82.28-.31-.05-.6-.18-.88-.38-.27-.19-.56-.45-.89-.8-.57-.6-1.04-1.35-1.42-2.23l-.84.36Z"/>
        </g>
        <g>
          <path class="cls-1" d="m170.03,36.88l4.15,5.67-.99.72-1.68-2.3-5.19,3.8-.79-1.08,5.19-3.8-1.68-2.3.99-.72Z"/>
          <path class="cls-1" d="m166.3,44.98l-.96-1.32,5.19-3.8-1.68-2.3,1.23-.9.09.12,4.24,5.79-1.23.9-1.68-2.3-5.19,3.8Zm-.55-1.25l.62.84,5.19-3.8,1.68,2.3.75-.55-3.98-5.44-.75.55,1.68,2.3-5.19,3.8Z"/>
        </g>
        <g>
          <path class="cls-1" d="m176.78,55.78c-.43.23-.87.37-1.31.41-.45.04-.89,0-1.32-.14-.39-.13-.75-.32-1.07-.59s-.6-.61-.83-1.03c-.24-.45-.39-.89-.43-1.32-.04-.43,0-.85.11-1.24.12-.42.32-.8.6-1.14.28-.34.63-.63,1.04-.86l3.9-2.12.65,1.2-3.98,2.16c-.26.14-.47.32-.64.53-.16.21-.28.43-.34.66-.17.52-.12,1.04.15,1.54.13.25.31.45.52.61.21.16.44.28.69.35.23.07.48.09.74.06.26-.03.52-.12.78-.26l3.98-2.16.65,1.2-3.9,2.12Z"/>
          <path class="cls-1" d="m175.14,56.35c-.36,0-.71-.05-1.05-.16-.41-.13-.78-.34-1.12-.62-.34-.27-.62-.63-.86-1.07-.25-.46-.4-.93-.44-1.38-.04-.45,0-.88.12-1.29.13-.43.34-.83.63-1.19.29-.36.65-.66,1.09-.89l4.03-2.19.79,1.46-4.11,2.23c-.24.13-.44.3-.59.49-.15.2-.26.4-.32.61-.16.49-.12.96.14,1.43.12.23.29.42.48.57.2.15.41.26.64.33.21.06.44.08.68.05.24-.03.49-.11.73-.24l4.11-2.23.79,1.46-4.03,2.19c-.44.24-.9.38-1.37.43-.11.01-.22.02-.33.02Zm2.28-8.39l-3.77,2.05c-.4.22-.74.49-1,.82-.26.33-.46.69-.57,1.09-.11.37-.15.77-.11,1.18.04.41.18.84.41,1.27.22.4.48.73.79.98.31.25.65.44,1.02.56.41.13.84.17,1.26.13.43-.04.85-.17,1.26-.39l3.77-2.05-.51-.94-3.85,2.09c-.28.15-.56.24-.84.27-.28.03-.55,0-.8-.06-.26-.08-.51-.2-.73-.37-.23-.17-.42-.4-.56-.66-.29-.54-.35-1.1-.16-1.65.07-.24.19-.48.37-.71.18-.23.41-.42.68-.57l3.85-2.09-.51-.94Z"/>
        </g>
        <g>
          <path class="cls-1" d="m184.53,62.58c.21.55.3,1.09.27,1.61-.02.53-.14,1.02-.36,1.49-.2.42-.48.79-.84,1.12-.36.32-.79.58-1.29.76-.53.2-1.05.29-1.56.27-.52-.02-1-.13-1.45-.35-.42-.2-.8-.49-1.14-.87-.34-.37-.6-.82-.8-1.34l-1.13-2.98,7.16-2.7,1.12,2.98Zm-1.8-1.3l-4.87,1.84.63,1.68c.14.37.33.68.56.93.23.25.49.44.77.57.62.26,1.29.26,2.02-.01.72-.27,1.22-.71,1.5-1.3.13-.29.2-.6.21-.94.01-.34-.05-.7-.2-1.08l-.63-1.68Z"/>
          <path class="cls-1" d="m180.88,67.98s-.09,0-.14,0c-.53-.02-1.04-.14-1.51-.36-.44-.21-.84-.52-1.19-.9-.35-.39-.62-.85-.82-1.38l-1.18-3.12,7.44-2.81,1.18,3.12c.21.57.31,1.13.28,1.67-.03.55-.15,1.07-.37,1.54-.21.44-.5.83-.88,1.16-.37.33-.82.6-1.33.79-.5.19-.99.28-1.48.28Zm-4.46-5.6l1.07,2.85c.19.5.45.93.77,1.29.32.36.69.64,1.09.83.43.2.9.31,1.4.33.49.02,1-.07,1.5-.26.48-.18.9-.43,1.24-.74.34-.31.61-.67.81-1.07.21-.44.32-.92.35-1.43.02-.5-.07-1.03-.27-1.56l-1.07-2.85-6.89,2.6Zm4.34,4.25c-.35,0-.69-.07-1.01-.21-.31-.14-.58-.34-.82-.6-.24-.26-.44-.59-.59-.98l-.69-1.82,5.15-1.94.68,1.82c.15.4.22.78.2,1.14-.01.36-.09.69-.23.99-.3.63-.83,1.09-1.59,1.38-.38.15-.76.22-1.12.22Zm-2.73-3.43l.58,1.54c.13.35.31.65.53.88s.46.41.73.53c.58.25,1.22.24,1.91-.02.68-.26,1.16-.67,1.42-1.23.12-.26.19-.56.2-.88.01-.32-.05-.66-.19-1.02l-.58-1.54-4.6,1.73Z"/>
        </g>
        <g>
          <path class="cls-1" d="m180.53,75.36l-.33-1.3,7.41-1.92.33,1.3-7.41,1.92Z"/>
          <path class="cls-1" d="m180.43,75.54l-.41-1.58,7.7-1.99.41,1.58-7.7,1.99Zm-.05-1.37l.26,1.01,7.13-1.84-.26-1.01-7.13,1.84Z"/>
        </g>
        <g>
          <path class="cls-1" d="m190.03,83.36c.08.59.06,1.14-.06,1.65-.12.51-.34.97-.64,1.37-.32.41-.71.75-1.16,1.01-.45.26-.95.43-1.5.51-.55.08-1.07.06-1.56-.06s-.94-.33-1.34-.62c-.42-.31-.77-.69-1.05-1.15-.28-.46-.46-.99-.54-1.6-.09-.61-.05-1.18.11-1.72.16-.54.4-1.01.73-1.42.3-.37.67-.68,1.1-.94s.91-.42,1.41-.49c.53-.08,1.04-.05,1.53.07.49.12.94.32,1.34.61.43.3.79.68,1.07,1.16.29.47.47,1.01.56,1.62Zm-4.31-2.09c-.38.05-.72.17-1.02.34-.3.18-.56.39-.76.64-.23.27-.39.59-.49.94-.1.35-.12.72-.07,1.11.05.38.18.72.37,1.04.19.31.43.57.73.78.27.19.57.32.91.4s.7.09,1.09.04c.4-.06.75-.17,1.05-.35.3-.18.56-.39.75-.64.22-.28.38-.6.47-.95.1-.35.12-.71.06-1.08-.05-.38-.17-.72-.37-1.04-.19-.31-.43-.57-.73-.78-.27-.19-.57-.32-.91-.41-.34-.08-.7-.1-1.09-.04Z"/>
          <path class="cls-1" d="m186.03,88.11c-.33,0-.65-.04-.96-.11-.51-.12-.98-.34-1.4-.65-.44-.32-.8-.72-1.09-1.2-.29-.48-.48-1.03-.56-1.65-.09-.62-.05-1.22.11-1.78.16-.55.42-1.05.76-1.47.31-.38.7-.71,1.14-.97.45-.26.94-.44,1.47-.51.54-.08,1.08-.05,1.58.07.51.12.97.34,1.39.63.44.31.82.71,1.11,1.2.29.48.49,1.04.58,1.67h0c.09.6.07,1.18-.06,1.71-.13.53-.35,1.01-.67,1.43-.33.43-.74.78-1.2,1.05-.47.27-.99.45-1.55.53-.22.03-.44.05-.66.05Zm.1-8.09c-.19,0-.39.01-.58.04-.48.07-.94.23-1.36.47s-.78.55-1.06.9c-.31.39-.55.85-.71,1.37-.15.51-.19,1.07-.1,1.65.08.58.26,1.1.52,1.54.26.44.6.81,1.01,1.11.39.28.82.48,1.29.6.47.11.98.13,1.51.06.52-.07,1.01-.24,1.45-.49.43-.25.81-.58,1.11-.98.29-.38.5-.83.62-1.32.12-.49.14-1.03.06-1.6h0c-.08-.59-.27-1.11-.54-1.56-.27-.45-.62-.82-1.03-1.11-.39-.28-.82-.47-1.29-.59-.29-.07-.58-.1-.89-.1Zm-.12,6.72c-.23,0-.45-.03-.67-.08-.35-.08-.68-.23-.96-.42-.31-.22-.57-.49-.77-.82-.2-.33-.33-.7-.39-1.09-.06-.41-.03-.8.07-1.17.1-.37.28-.71.52-.99.21-.26.48-.49.8-.68.31-.18.67-.31,1.07-.36h0c.4-.06.79-.04,1.14.05.35.09.67.23.96.43.31.22.57.5.77.82.2.33.33.7.39,1.09.06.39.03.77-.07,1.14-.1.37-.27.71-.5,1-.21.27-.48.49-.79.68-.32.19-.69.31-1.11.37-.16.02-.32.03-.48.03Zm.15-5.36c-.14,0-.28.01-.42.03h0c-.36.05-.69.16-.97.33-.29.17-.53.37-.72.61-.21.26-.37.56-.46.89-.09.33-.12.68-.06,1.05.05.35.17.69.35.98.18.29.41.54.69.73.25.17.54.3.86.38s.66.09,1.03.04c.37-.05.71-.16,1-.33.29-.17.52-.37.71-.6.21-.26.36-.57.45-.9.09-.33.11-.67.06-1.03-.05-.36-.17-.69-.35-.98-.18-.29-.41-.54-.69-.74-.25-.17-.54-.3-.86-.38-.19-.05-.4-.07-.61-.07Z"/>
        </g>
      </g>
    </g>
  </g>
</svg>